<svg version="1.1" viewBox="0 0 64.71 13.27" xmlns="http://www.w3.org/2000/svg">
  <defs>
    <filter id="filter2345-4" x="-1.296e-5" y="-3.704e-5" width="1" height="1" color-interpolation-filters="sRGB">
      <feGaussianBlur stdDeviation="0.11001714"/>
    </filter>
  </defs>
  <g transform="matrix(2.024 0 0 2.024 -18.41 -11.6)" fill="#cfcfcf">
    <path transform="matrix(.003055 0 0 .003055 -38.5 34.1)" d="m17482-8091q0 119.7 59.85 221.3 61.66 101.6 163.2 161.4 103.4 59.85 223.1 59.85 123.3 0 223.1-48.97t156-136q58.03-87.05 59.85-195.9h65.29q0 125.1-67.1 228.5-65.29 101.6-181.4 161.4-114.3 58.04-255.7 58.04-137.8 0-255.7-68.92t-186.8-185q-68.92-117.9-68.92-255.7v-297.4q0-137.8 67.1-253.9 68.92-117.9 185-186.8 117.9-68.92 255.7-68.92 139.6 0 253.9 59.85 116.1 58.04 183.2 161.4 67.1 101.6 67.1 226.7h-65.29q-1.814-108.8-59.85-195.9-58.03-87.05-157.8-136-97.93-48.97-221.3-48.97-119.7 0-221.3 59.85t-161.4 161.4-59.85 221.3z" filter="url(#filter2345-4)" style="font-variant-caps:normal;font-variant-east-asian:normal;font-variant-ligatures:normal;font-variant-numeric:normal;mix-blend-mode:normal;white-space:pre"/>
    <path transform="matrix(.003055 0 0 .003055 -38.5 34.1)" d="m19667-8871v67.1h-377.2v1128h377.2v67.1h-817.9v-67.1h375.4v-1128h-375.4v-67.1z" filter="url(#filter2345-4)" style="font-variant-caps:normal;font-variant-east-asian:normal;font-variant-ligatures:normal;font-variant-numeric:normal;mix-blend-mode:normal;white-space:pre"/>
    <path transform="matrix(.003055 0 0 .003055 -38.5 34.1)" d="m20873-8829q108.8 50.78 170.5 150.5 63.48 99.75 63.48 221.3 0 141.5-87.05 253.9-85.24 110.6-219.4 146.9l321 448h-79.8l-310.1-435.3-58.03 1.814h-455.2v433.4h-67.1v-1262h480.6q79.8 0 136 10.88 58.03 9.068 105.2 30.83zm-181.4 720q94.31 0 174.1-47.15 79.8-47.15 127-127t47.15-174.1q0-105.2-56.22-190.4-54.41-85.24-152.3-127-70.73-29.02-199.5-29.02h-413.5v694.6z" filter="url(#filter2345-4)" style="font-variant-caps:normal;font-variant-east-asian:normal;font-variant-ligatures:normal;font-variant-numeric:normal;mix-blend-mode:normal;white-space:pre"/>
    <path transform="matrix(.003055 0 0 .003055 -38.5 34.1)" d="m21508-8091q0 119.7 59.85 221.3 61.66 101.6 163.2 161.4 103.4 59.85 223.1 59.85 123.3 0 223.1-48.97t156-136q58.03-87.05 59.85-195.9h65.29q0 125.1-67.1 228.5-65.29 101.6-181.4 161.4-114.3 58.04-255.7 58.04-137.8 0-255.7-68.92t-186.8-185q-68.92-117.9-68.92-255.7v-297.4q0-137.8 67.1-253.9 68.92-117.9 185-186.8 117.9-68.92 255.7-68.92 139.6 0 253.9 59.85 116.1 58.04 183.2 161.4 67.1 101.6 67.1 226.7h-65.29q-1.814-108.8-59.85-195.9-58.03-87.05-157.8-136-97.93-48.97-221.3-48.97-119.7 0-221.3 59.85t-161.4 161.4-59.85 221.3z" filter="url(#filter2345-4)" style="font-variant-caps:normal;font-variant-east-asian:normal;font-variant-ligatures:normal;font-variant-numeric:normal;mix-blend-mode:normal;white-space:pre"/>
    <path transform="matrix(.003055 0 0 .003055 -38.5 34.1)" d="m22893-7609v-1262h67.1v1195h879.6v67.1z" filter="url(#filter2345-4)" style="font-variant-caps:normal;font-variant-east-asian:normal;font-variant-ligatures:normal;font-variant-numeric:normal;mix-blend-mode:normal;white-space:pre"/>
    <path transform="matrix(.003055 0 0 .003055 -38.5 34.1)" d="m24190-8871h888.7v67.1h-821.6v511.4h714.6v67.1h-714.6v549.5h821.6v67.1h-888.7z" filter="url(#filter2345-4)" style="font-variant-caps:normal;font-variant-east-asian:normal;font-variant-ligatures:normal;font-variant-numeric:normal;mix-blend-mode:normal;white-space:pre"/>
    <g transform="matrix(.003395 0 0 .003395 -47.18 37.22)" filter="url(#filter2345-4)" shape-rendering="auto">
      <path d="m25987-8378v43.62h-509.2v-43.62l176.8-194.5 160.3-174.5 14.15-15.32c31.44-33.01 55.8-62.87 73.09-89.59 17.29-27.51 25.94-56.98 25.94-88.41 0-35.36-9.038-67.59-27.11-96.66-17.29-29.08-41.65-51.87-73.09-68.37-30.65-16.5-64.84-24.76-102.6-24.76-36.15 0-69.94 9.038-101.4 27.11-30.65 18.08-55.01 42.83-73.09 74.27-18.08 30.65-27.11 64.44-27.11 101.4h-43.62c0-44.8 11-85.66 33.01-122.6 22-37.72 51.48-67.59 88.41-89.59 37.72-22 78.98-33.01 123.8-33.01 46.37 0 88.02 10.22 125 30.65 37.72 19.65 67.19 47.15 88.41 82.52 22 35.36 33.01 75.05 33.01 119.1 0 39.29-9.823 74.27-29.47 104.9s-46.76 64.84-81.34 102.6l-14.15 15.32-310 339.5z" baseline-shift="super" color="#000000" color-rendering="auto" dominant-baseline="auto" image-rendering="auto" solid-color="#000000" stop-color="#000000" style="font-feature-settings:normal;font-variant-alternates:normal;font-variant-caps:normal;font-variant-east-asian:normal;font-variant-ligatures:normal;font-variant-numeric:normal;font-variant-position:normal;font-variation-settings:normal;inline-size:0;isolation:auto;mix-blend-mode:normal;shape-margin:0;shape-padding:0;text-decoration-color:#000000;text-decoration-line:none;text-decoration-style:solid;text-indent:0;text-orientation:mixed;text-transform:none;white-space:pre"/>
      <path transform="translate(-1524 -6572)" d="m27249-2608c-46.02 0-88.72 11.37-127.6 34.03l-0.03 0.016-0.03 0.019c-37.97 22.62-68.42 53.47-91.02 92.2l-0.01 0.02c-22.68 38.08-34.05 80.4-34.05 126.4v7.5h58.62v-7.5c0-35.71 8.666-68.05 26.07-97.57l0.02-0.035 0.02-0.037c17.46-30.37 40.81-54.08 70.35-71.52 30.35-17.44 62.72-26.1 97.61-26.1 36.63 0 69.48 7.965 99 23.86l0.03 0.017 0.04 0.02c30.33 15.92 53.54 37.67 70.13 65.56l0.08 0.124c17.36 27.92 25.98 58.62 25.98 92.7 0 30.05-8.175 57.98-24.76 84.38-16.93 26.15-41 55.69-72.19 88.45l-0.04 0.043-14.19 15.37-160.3 174.5-178.8 196.7v54.02h524.2v-58.62h-440.8l298.6-326.9 14.14-15.32 0.01-0.01c34.78-37.95 62.15-72.42 82.12-103.6 20.43-31.88 30.66-68.42 30.66-109 0-45.23-11.39-86.43-34.1-123-21.9-36.48-52.49-65.01-91.29-85.24-38.07-21.04-81.06-31.53-128.5-31.53z" baseline-shift="super" color="#000000" color-rendering="auto" dominant-baseline="auto" image-rendering="auto" solid-color="#000000" stop-color="#000000" style="font-feature-settings:normal;font-variant-alternates:normal;font-variant-caps:normal;font-variant-east-asian:normal;font-variant-ligatures:normal;font-variant-numeric:normal;font-variant-position:normal;font-variation-settings:normal;inline-size:0;isolation:auto;mix-blend-mode:normal;shape-margin:0;shape-padding:0;text-decoration-color:#000000;text-decoration-line:none;text-decoration-style:solid;text-indent:0;text-orientation:mixed;text-transform:none;white-space:pre"/>
    </g>
  </g>
  <g transform="matrix(.8211 0 0 .8211 -8.211 -8.211)">
    <text transform="translate(-116.7 -158.7)" font-family="Nunito" font-size="7.056px" font-weight="200" letter-spacing="0px" word-spacing="0px" style="font-variant-caps:normal;font-variant-east-asian:normal;font-variant-ligatures:normal;font-variant-numeric:normal;line-height:1.45;shape-inside:url(#rect3210);white-space:pre" xml:space="preserve"/>
    <text transform="translate(-116.7 -158.7)" font-family="Nunito" font-size="7.056px" font-weight="200" letter-spacing="0px" word-spacing="0px" style="font-variant-caps:normal;font-variant-east-asian:normal;font-variant-ligatures:normal;font-variant-numeric:normal;line-height:1.45;shape-inside:url(#rect3216);white-space:pre" xml:space="preserve"/>
    <path d="m10.01 15.69a5.775 5.775 0 0 0-0.0011 0.08268 5.775 5.775 0 0 1 0.0011-0.08268zm11.55 0.08268a5.775 5.775 0 0 1 0 0.0011l5.29e-4 -5.29e-4zm0 0.0011a5.775 5.775 0 0 1-2.599 4.823l2.596 1.726 0.0036-0.0026-5.29e-4 -5.29e-4zm-11.55-5.69e-4v6.547h5.29e-4l2.596-1.726a5.775 5.775 0 0 1-2.596-4.821z" fill="#9f9f9f" fill-opacity=".9961" stroke-width=".006325" style="mix-blend-mode:normal;paint-order:markers fill stroke"/>
    <g>
      <path d="m15.78 18.49-3.176 2.112a5.775 5.775 0 0 0 3.179 0.9539 5.775 5.775 0 0 0 3.176-0.9514z" fill="#b7b7b7" stop-color="#000000" stroke-width=".006073" style="mix-blend-mode:normal;paint-order:markers fill stroke"/>
      <path d="m12.6 20.6-2.6 1.729 5.776 3.84 5.775-3.84-2.596-1.726a5.775 5.775 0 0 1-3.176 0.9514 5.775 5.775 0 0 1-3.179-0.9539z" fill="#6f6f6f" stop-color="#000000" stroke-width=".006073" style="mix-blend-mode:normal;paint-order:markers fill stroke"/>
      <path d="m15.75 10a5.775 5.775 0 0 0-5.746 5.775 5.775 5.775 0 0 0 2.596 4.821l3.176-2.112 3.179 2.114a5.775 5.775 0 0 0 2.6-4.824 5.775 5.775 0 0 0-5.775-5.775 5.775 5.775 0 0 0-0.02894 0z" fill="#cfcfcf" stop-color="#000000" stroke-width=".006325" style="mix-blend-mode:normal;paint-order:markers fill stroke"/>
    </g>
  </g>
</svg>


